<svg xmlns="http://www.w3.org/2000/svg" version="1.1" xmlns:xlink="http://www.w3.org/1999/xlink" xmlns:svgjs="http://svgjs.dev/svgjs" width="1000" height="1000" viewBox="0 0 1000 1000"><rect width="1000" height="1000" fill="#000000"></rect><g transform="matrix(0.7,0,0,0.7,149.57576229927395,411.4425405969014)"><svg viewBox="0 0 396 100" data-background-color="#ffffff" preserveAspectRatio="xMidYMid meet" height="252" width="1000" xmlns="http://www.w3.org/2000/svg" xmlns:xlink="http://www.w3.org/1999/xlink"><g id="tight-bounds" transform="matrix(1,0,0,1,0.23999732783931904,0.20264138497654471)"><svg viewBox="0 0 395.52 99.5947172300469" height="99.5947172300469" width="395.52"><g><svg viewBox="0 0 496.80672732121377 125.09942740074156" height="99.5947172300469" width="395.52"><g transform="matrix(1,0,0,1,101.28672732121382,17.289428823112623)"><svg viewBox="0 0 395.52 90.52056975451632" height="90.52056975451632" width="395.52"><g><svg viewBox="0 0 395.52 90.52056975451632" height="90.52056975451632" width="395.52"><g><svg viewBox="0 0 395.52 56.446070351758785" height="56.446070351758785" width="395.52"><g transform="matrix(1,0,0,1,0,0)"><svg width="395.52" viewBox="1.5 -34.900001525878906 251.72999572753906 35.5" height="56.446070351758785" data-palette-color="#ff851b"><g class="undefined-text-0" data-fill-palette-color="primary" id="text-0"><path d="M13.35 0.6Q10.1 0.6 7.4-0.63 4.7-1.85 3.1-4.25 1.5-6.65 1.5-10.05L1.5-10.05 1.55-11.15 8.2-11.15 8.15-10.35Q8.15-7.85 9.6-6.38 11.05-4.9 13.65-4.9L13.65-4.9Q16.3-4.9 17.57-6.08 18.85-7.25 18.85-8.95L18.85-8.95Q18.85-10.65 17.95-11.73 17.05-12.8 15.73-13.4 14.4-14 12-14.8L12-14.8Q8.85-15.8 6.9-16.8 4.95-17.8 3.58-19.85 2.2-21.9 2.2-25.3L2.2-25.3Q2.2-28.4 3.75-30.58 5.3-32.75 7.9-33.83 10.5-34.9 13.65-34.9L13.65-34.9Q18.55-34.9 21.68-32.38 24.8-29.85 24.8-24.8L24.8-24.8 24.8-24.2 18.25-24.2 18.25-24.65Q18.25-26.85 17-28.13 15.75-29.4 13.6-29.4L13.6-29.4Q11.35-29.4 10.08-28.38 8.8-27.35 8.8-25.75L8.8-25.75Q8.8-24.35 9.65-23.45 10.5-22.55 11.78-22 13.05-21.45 15.3-20.75L15.3-20.75Q18.55-19.7 20.55-18.73 22.55-17.75 24-15.7 25.45-13.65 25.45-10.3L25.45-10.3Q25.45-4.65 22.23-2.02 19 0.6 13.35 0.6L13.35 0.6ZM43.3 0.6Q36.5 0.6 32.77-3.83 29.05-8.25 29.05-17.15L29.05-17.15Q29.05-26.05 32.77-30.48 36.5-34.9 43.3-34.9L43.3-34.9Q50.1-34.9 53.82-30.48 57.55-26.05 57.55-17.15L57.55-17.15Q57.55-8.25 53.82-3.83 50.1 0.6 43.3 0.6L43.3 0.6ZM43.3-4.9Q47.05-4.9 49-7.78 50.95-10.65 50.95-15.9L50.95-15.9 50.95-18.4Q50.95-23.65 49-26.53 47.05-29.4 43.3-29.4L43.3-29.4Q39.55-29.4 37.6-26.53 35.65-23.65 35.65-18.4L35.65-18.4 35.65-15.9Q35.65-10.65 37.6-7.78 39.55-4.9 43.3-4.9L43.3-4.9ZM62.25 0L62.25-34.3 68.65-34.3 68.65-6 83.15-6 83.15 0 62.25 0ZM87.29 0L87.29-34.3 109.14-34.3 109.14-28.6 93.69-28.6 93.69-20.4 106.94-20.4 106.94-14.7 93.69-14.7 93.69-5.7 109.44-5.7 109.44 0 87.29 0ZM114.29 0L114.29-34.3 123.29-34.3 127.54-15.4Q127.99-13.25 128.89-7.65L128.89-7.65 129.09-7.65Q129.79-13.5 130.24-15.4L130.24-15.4 134.44-34.3 143.14-34.3 143.14 0 137.24 0 137.24-21.85Q137.24-23.3 137.49-27.35L137.49-27.35 137.29-27.35 136.09-21.95 131.29 0 125.74 0 120.89-22.05 119.69-27.35 119.49-27.35Q119.74-23.15 119.74-21.85L119.74-21.85 119.74 0 114.29 0ZM145.79 0L156.84-34.3 164.29-34.3 175.34 0 168.79 0 166.69-6.75 154.04-6.75 151.99 0 145.79 0ZM155.79-12.45L164.94-12.45 161.49-23.9Q160.99-25.6 160.49-28.55L160.49-28.55 160.29-28.55Q159.79-25.4 159.29-23.9L159.29-23.9 155.79-12.45ZM184.74 0L184.74-28.6 176.24-28.6 176.24-34.3 199.64-34.3 199.64-28.6 191.14-28.6 191.14 0 184.74 0ZM203.43 0L203.43-34.3 225.28-34.3 225.28-28.6 209.83-28.6 209.83-20.4 223.08-20.4 223.08-14.7 209.83-14.7 209.83-5.7 225.58-5.7 225.58 0 203.43 0ZM241.13 0.6Q237.88 0.6 235.18-0.63 232.48-1.85 230.88-4.25 229.28-6.65 229.28-10.05L229.28-10.05 229.33-11.15 235.98-11.15 235.93-10.35Q235.93-7.85 237.38-6.38 238.83-4.9 241.43-4.9L241.43-4.9Q244.08-4.9 245.36-6.08 246.63-7.25 246.63-8.95L246.63-8.95Q246.63-10.65 245.73-11.73 244.83-12.8 243.51-13.4 242.18-14 239.78-14.8L239.78-14.8Q236.63-15.8 234.68-16.8 232.73-17.8 231.36-19.85 229.98-21.9 229.98-25.3L229.98-25.3Q229.98-28.4 231.53-30.58 233.08-32.75 235.68-33.83 238.28-34.9 241.43-34.9L241.43-34.9Q246.33-34.9 249.46-32.38 252.58-29.85 252.58-24.8L252.58-24.8 252.58-24.2 246.03-24.2 246.03-24.65Q246.03-26.85 244.78-28.13 243.53-29.4 241.38-29.4L241.38-29.4Q239.13-29.4 237.86-28.38 236.58-27.35 236.58-25.75L236.58-25.75Q236.58-24.35 237.43-23.45 238.28-22.55 239.56-22 240.83-21.45 243.08-20.75L243.08-20.75Q246.33-19.7 248.33-18.73 250.33-17.75 251.78-15.7 253.23-13.65 253.23-10.3L253.23-10.3Q253.23-4.65 250.01-2.02 246.78 0.6 241.13 0.6L241.13 0.6Z" fill="#ffffff" data-fill-palette-color="primary"></path></g></svg></g></svg></g><g transform="matrix(1,0,0,1,0,69.77163285612059)"><svg viewBox="0 0 395.52 20.74893689839572" height="20.74893689839572" width="395.52"><g transform="matrix(1,0,0,1,0,0)"><svg width="395.52" viewBox="3.1700000762939453 -37.5 913.0900268554688 47.900001525878906" height="20.74893689839572" data-palette-color="#ff851b"><path d="M24.56-20.43L24.56-14.53 10.5-14.53 10.5 0 3.17 0 3.17-35.55 26.32-35.55 26.32-29.61 10.5-29.61 10.5-20.43 24.56-20.43ZM37.55-26.42L37.55 0 30.47 0 30.47-26.42 37.55-26.42ZM30.05-33.25L30.05-33.25Q30.05-34.84 31.12-35.86 32.18-36.89 34.01-36.89L34.01-36.89Q35.82-36.89 36.89-35.86 37.96-34.84 37.96-33.25L37.96-33.25Q37.96-31.64 36.88-30.62 35.79-29.59 34.01-29.59 32.23-29.59 31.14-30.62 30.05-31.64 30.05-33.25ZM43.21-26.42L49.85-26.42 50.07-23.36Q52.91-26.9 57.67-26.9L57.67-26.9Q61.87-26.9 63.92-24.44 65.97-21.97 66.02-17.07L66.02-17.07 66.02 0 58.96 0 58.96-16.89Q58.96-19.14 57.98-20.15 57.01-21.17 54.74-21.17L54.74-21.17Q51.76-21.17 50.27-18.63L50.27-18.63 50.27 0 43.21 0 43.21-26.42ZM70.26-13.4L70.26-13.4Q70.26-19.58 73.03-23.24 75.81-26.9 80.62-26.9L80.62-26.9Q84.47-26.9 86.99-24.02L86.99-24.02 86.99-37.5 94.07-37.5 94.07 0 87.7 0 87.35-2.81Q84.72 0.49 80.57 0.49L80.57 0.49Q75.9 0.49 73.08-3.19 70.26-6.86 70.26-13.4ZM77.32-12.89L77.32-12.89Q77.32-9.18 78.61-7.2 79.91-5.22 82.37-5.22L82.37-5.22Q85.64-5.22 86.99-7.98L86.99-7.98 86.99-18.41Q85.67-21.17 82.42-21.17L82.42-21.17Q77.32-21.17 77.32-12.89ZM132.28 0L125.61-13.01 119.78-13.01 119.78 0 112.45 0 112.45-35.55 125.66-35.55Q131.96-35.55 135.38-32.74 138.79-29.93 138.79-24.8L138.79-24.8Q138.79-21.17 137.22-18.74 135.64-16.31 132.45-14.87L132.45-14.87 140.14-0.34 140.14 0 132.28 0ZM119.78-29.61L119.78-18.95 125.68-18.95Q128.44-18.95 129.96-20.35 131.47-21.75 131.47-24.22L131.47-24.22Q131.47-26.73 130.04-28.17 128.61-29.61 125.66-29.61L125.66-29.61 119.78-29.61ZM159.91 0L159.72-2.69Q157.1 0.49 152.49 0.49L152.49 0.49Q148.24 0.49 146.01-1.95 143.77-4.39 143.73-9.11L143.73-9.11 143.73-26.42 150.78-26.42 150.78-9.35Q150.78-5.22 154.54-5.22L154.54-5.22Q158.13-5.22 159.47-7.71L159.47-7.71 159.47-26.42 166.55-26.42 166.55 0 159.91 0ZM171.73-26.42L178.37-26.42 178.59-23.36Q181.42-26.9 186.18-26.9L186.18-26.9Q190.38-26.9 192.43-24.44 194.48-21.97 194.53-17.07L194.53-17.07 194.53 0 187.48 0 187.48-16.89Q187.48-19.14 186.5-20.15 185.52-21.17 183.25-21.17L183.25-21.17Q180.27-21.17 178.78-18.63L178.78-18.63 178.78 0 171.73 0 171.73-26.42ZM199.73-26.42L206.37-26.42 206.59-23.36Q209.42-26.9 214.18-26.9L214.18-26.9Q218.38-26.9 220.43-24.44 222.49-21.97 222.53-17.07L222.53-17.07 222.53 0 215.48 0 215.48-16.89Q215.48-19.14 214.5-20.15 213.53-21.17 211.25-21.17L211.25-21.17Q208.28-21.17 206.79-18.63L206.79-18.63 206.79 0 199.73 0 199.73-26.42ZM235.33-26.42L235.33 0 228.25 0 228.25-26.42 235.33-26.42ZM227.83-33.25L227.83-33.25Q227.83-34.84 228.89-35.86 229.96-36.89 231.79-36.89L231.79-36.89Q233.59-36.89 234.67-35.86 235.74-34.84 235.74-33.25L235.74-33.25Q235.74-31.64 234.66-30.62 233.57-29.59 231.79-29.59 230-29.59 228.92-30.62 227.83-31.64 227.83-33.25ZM240.99-26.42L247.63-26.42 247.85-23.36Q250.68-26.9 255.44-26.9L255.44-26.9Q259.64-26.9 261.69-24.44 263.75-21.97 263.79-17.07L263.79-17.07 263.79 0 256.74 0 256.74-16.89Q256.74-19.14 255.76-20.15 254.79-21.17 252.51-21.17L252.51-21.17Q249.54-21.17 248.05-18.63L248.05-18.63 248.05 0 240.99 0 240.99-26.42ZM268.12-13.11L268.12-13.4Q268.12-19.48 271.01-23.19 273.9-26.9 278.81-26.9L278.81-26.9Q283.15-26.9 285.57-23.93L285.57-23.93 285.86-26.42 292.26-26.42 292.26-0.88Q292.26 2.59 290.69 5.15 289.11 7.71 286.25 9.06 283.4 10.4 279.57 10.4L279.57 10.4Q276.66 10.4 273.9 9.24 271.14 8.08 269.73 6.25L269.73 6.25 272.85 1.95Q275.49 4.91 279.25 4.91L279.25 4.91Q282.06 4.91 283.62 3.41 285.18 1.9 285.18-0.85L285.18-0.85 285.18-2.27Q282.74 0.49 278.76 0.49L278.76 0.49Q274 0.49 271.06-3.23 268.12-6.96 268.12-13.11L268.12-13.11ZM275.17-12.89L275.17-12.89Q275.17-9.3 276.61-7.26 278.05-5.22 280.57-5.22L280.57-5.22Q283.79-5.22 285.18-7.64L285.18-7.64 285.18-18.75Q283.76-21.17 280.62-21.17L280.62-21.17Q278.08-21.17 276.62-19.09 275.17-17.02 275.17-12.89ZM324.34-12.52L317.92-12.52 317.92 0 310.6 0 310.6-35.55 324.46-35.55Q328.47-35.55 331.51-34.08 334.55-32.62 336.18-29.92 337.82-27.22 337.82-23.78L337.82-23.78Q337.82-18.55 334.24-15.54 330.66-12.52 324.34-12.52L324.34-12.52ZM317.92-29.61L317.92-18.46 324.46-18.46Q327.37-18.46 328.89-19.82 330.42-21.19 330.42-23.73L330.42-23.73Q330.42-26.34 328.88-27.95 327.34-29.57 324.63-29.61L324.63-29.61 317.92-29.61ZM364.55 0L357.42 0Q356.93-0.95 356.71-2.37L356.71-2.37Q354.15 0.49 350.05 0.49L350.05 0.49Q346.17 0.49 343.62-1.76 341.06-4 341.06-7.42L341.06-7.42Q341.06-11.62 344.18-13.87 347.29-16.11 353.17-16.14L353.17-16.14 356.42-16.14 356.42-17.65Q356.42-19.48 355.48-20.58 354.54-21.68 352.51-21.68L352.51-21.68Q350.73-21.68 349.72-20.83 348.71-19.97 348.71-18.48L348.71-18.48 341.65-18.48Q341.65-20.78 343.07-22.73 344.48-24.68 347.07-25.79 349.66-26.9 352.88-26.9L352.88-26.9Q357.76-26.9 360.63-24.45 363.5-22 363.5-17.55L363.5-17.55 363.5-6.1Q363.53-2.34 364.55-0.42L364.55-0.42 364.55 0ZM351.59-4.91L351.59-4.91Q353.15-4.91 354.47-5.6 355.79-6.3 356.42-7.47L356.42-7.47 356.42-12.01 353.78-12.01Q348.49-12.01 348.14-8.35L348.14-8.35 348.12-7.93Q348.12-6.62 349.05-5.76 349.98-4.91 351.59-4.91ZM383.86-26.59L383.76-19.8Q382.32-20 381.23-20L381.23-20Q377.22-20 375.98-17.29L375.98-17.29 375.98 0 368.92 0 368.92-26.42 375.59-26.42 375.78-23.27Q377.91-26.9 381.67-26.9L381.67-26.9Q382.84-26.9 383.86-26.59L383.86-26.59ZM389.77-32.91L396.83-32.91 396.83-26.42 401.34-26.42 401.34-21.24 396.83-21.24 396.83-8.06Q396.83-6.59 397.39-5.96 397.95-5.32 399.54-5.32L399.54-5.32Q400.71-5.32 401.61-5.49L401.61-5.49 401.61-0.15Q399.54 0.49 397.34 0.49L397.34 0.49Q389.92 0.49 389.77-7.01L389.77-7.01 389.77-21.24 385.91-21.24 385.91-26.42 389.77-26.42 389.77-32.91ZM405.13-26.42L411.77-26.42 411.99-23.36Q414.82-26.9 419.58-26.9L419.58-26.9Q423.78-26.9 425.83-24.44 427.88-21.97 427.93-17.07L427.93-17.07 427.93 0 420.87 0 420.87-16.89Q420.87-19.14 419.9-20.15 418.92-21.17 416.65-21.17L416.65-21.17Q413.67-21.17 412.18-18.63L412.18-18.63 412.18 0 405.13 0 405.13-26.42ZM445.43 0.49L445.43 0.49Q439.62 0.49 435.97-3.08 432.32-6.64 432.32-12.57L432.32-12.57 432.32-13.26Q432.32-17.24 433.86-20.37 435.4-23.51 438.22-25.21 441.04-26.9 444.65-26.9L444.65-26.9Q450.07-26.9 453.19-23.49 456.3-20.07 456.3-13.79L456.3-13.79 456.3-10.91 439.48-10.91Q439.82-8.33 441.54-6.76 443.26-5.2 445.9-5.2L445.9-5.2Q449.98-5.2 452.27-8.15L452.27-8.15 455.74-4.27Q454.15-2.03 451.44-0.77 448.73 0.49 445.43 0.49ZM444.63-21.19L444.63-21.19Q442.53-21.19 441.22-19.78 439.92-18.36 439.55-15.72L439.55-15.72 449.37-15.72 449.37-16.28Q449.32-18.63 448.1-19.91 446.88-21.19 444.63-21.19ZM475.24-26.59L475.15-19.8Q473.71-20 472.61-20L472.61-20Q468.6-20 467.36-17.29L467.36-17.29 467.36 0 460.3 0 460.3-26.42 466.97-26.42 467.16-23.27Q469.29-26.9 473.05-26.9L473.05-26.9Q474.22-26.9 475.24-26.59L475.24-26.59ZM492.85-7.3L492.85-7.3Q492.85-8.59 491.56-9.34 490.28-10.08 487.45-10.67L487.45-10.67Q478.03-12.65 478.03-18.68L478.03-18.68Q478.03-22.19 480.94-24.55 483.86-26.9 488.57-26.9L488.57-26.9Q493.6-26.9 496.62-24.54 499.63-22.17 499.63-18.38L499.63-18.38 492.58-18.38Q492.58-19.9 491.6-20.89 490.63-21.88 488.55-21.88L488.55-21.88Q486.77-21.88 485.79-21.07 484.81-20.26 484.81-19.02L484.81-19.02Q484.81-17.85 485.93-17.13 487.04-16.41 489.67-15.88 492.31-15.36 494.12-14.7L494.12-14.7Q499.71-12.65 499.71-7.59L499.71-7.59Q499.71-3.98 496.61-1.75 493.51 0.49 488.6 0.49L488.6 0.49Q485.28 0.49 482.7-0.7 480.13-1.88 478.66-3.94 477.2-6.01 477.2-8.4L477.2-8.4 483.89-8.4Q483.98-6.52 485.28-5.52 486.57-4.52 488.75-4.52L488.75-4.52Q490.77-4.52 491.81-5.29 492.85-6.05 492.85-7.3ZM539.7 0L537.23-7.32 524.39-7.32 521.95 0 514.16 0 527.39-35.55 534.18-35.55 547.49 0 539.7 0ZM530.79-26.56L526.37-13.26 535.25-13.26 530.79-26.56ZM565.28-26.59L565.19-19.8Q563.75-20 562.65-20L562.65-20Q558.64-20 557.4-17.29L557.4-17.29 557.4 0 550.34 0 550.34-26.42 557.01-26.42 557.2-23.27Q559.33-26.9 563.09-26.9L563.09-26.9Q564.26-26.9 565.28-26.59L565.28-26.59ZM566.6-13.13L566.6-13.45Q566.6-17.38 568.12-20.46 569.63-23.54 572.47-25.22 575.32-26.9 579.08-26.9L579.08-26.9Q584.42-26.9 587.81-23.63 591.19-20.36 591.58-14.75L591.58-14.75 591.63-12.94Q591.63-6.86 588.23-3.19 584.84 0.49 579.13 0.49 573.41 0.49 570.01-3.17 566.6-6.84 566.6-13.13L566.6-13.13ZM573.66-12.94L573.66-12.94Q573.66-9.18 575.07-7.19 576.49-5.2 579.13-5.2L579.13-5.2Q581.69-5.2 583.13-7.17 584.57-9.13 584.57-13.45L584.57-13.45Q584.57-17.14 583.13-19.17 581.69-21.19 579.08-21.19L579.08-21.19Q576.49-21.19 575.07-19.18 573.66-17.16 573.66-12.94ZM611.99 0L611.79-2.69Q609.18 0.49 604.57 0.49L604.57 0.49Q600.32 0.49 598.08-1.95 595.85-4.39 595.8-9.11L595.8-9.11 595.8-26.42 602.86-26.42 602.86-9.35Q602.86-5.22 606.62-5.22L606.62-5.22Q610.21-5.22 611.55-7.71L611.55-7.71 611.55-26.42 618.63-26.42 618.63 0 611.99 0ZM623.8-26.42L630.44-26.42 630.66-23.36Q633.5-26.9 638.26-26.9L638.26-26.9Q642.46-26.9 644.51-24.44 646.56-21.97 646.61-17.07L646.61-17.07 646.61 0 639.55 0 639.55-16.89Q639.55-19.14 638.57-20.15 637.6-21.17 635.33-21.17L635.33-21.17Q632.35-21.17 630.86-18.63L630.86-18.63 630.86 0 623.8 0 623.8-26.42ZM650.85-13.4L650.85-13.4Q650.85-19.58 653.63-23.24 656.4-26.9 661.21-26.9L661.21-26.9Q665.06-26.9 667.58-24.02L667.58-24.02 667.58-37.5 674.66-37.5 674.66 0 668.29 0 667.94-2.81Q665.31 0.49 661.16 0.49L661.16 0.49Q656.49 0.49 653.67-3.19 650.85-6.86 650.85-13.4ZM657.91-12.89L657.91-12.89Q657.91-9.18 659.2-7.2 660.5-5.22 662.96-5.22L662.96-5.22Q666.24-5.22 667.58-7.98L667.58-7.98 667.58-18.41Q666.26-21.17 663.01-21.17L663.01-21.17Q657.91-21.17 657.91-12.89ZM718.33-35.55L718.33-29.61 707.45-29.61 707.45 0 700.12 0 700.12-29.61 689.38-29.61 689.38-35.55 718.33-35.55ZM728.93-37.5L728.93-23.54Q731.74-26.9 735.99-26.9L735.99-26.9Q744.58-26.9 744.7-16.92L744.7-16.92 744.7 0 737.65 0 737.65-16.72Q737.65-18.99 736.67-20.08 735.69-21.17 733.42-21.17L733.42-21.17Q730.32-21.17 728.93-18.77L728.93-18.77 728.93 0 721.88 0 721.88-37.5 728.93-37.5ZM762.18 0.49L762.18 0.49Q756.37 0.49 752.72-3.08 749.07-6.64 749.07-12.57L749.07-12.57 749.07-13.26Q749.07-17.24 750.61-20.37 752.15-23.51 754.97-25.21 757.79-26.9 761.4-26.9L761.4-26.9Q766.82-26.9 769.93-23.49 773.05-20.07 773.05-13.79L773.05-13.79 773.05-10.91 756.23-10.91Q756.57-8.33 758.29-6.76 760.01-5.2 762.65-5.2L762.65-5.2Q766.72-5.2 769.02-8.15L769.02-8.15 772.49-4.27Q770.9-2.03 768.19-0.77 765.48 0.49 762.18 0.49ZM761.38-21.19L761.38-21.19Q759.28-21.19 757.97-19.78 756.67-18.36 756.3-15.72L756.3-15.72 766.11-15.72 766.11-16.28Q766.06-18.63 764.84-19.91 763.62-21.19 761.38-21.19ZM818.09-18.68L818.09-4.49Q816.11-2.12 812.5-0.82 808.89 0.49 804.49 0.49L804.49 0.49Q799.88 0.49 796.4-1.53 792.92-3.54 791.03-7.37 789.14-11.21 789.09-16.38L789.09-16.38 789.09-18.8Q789.09-24.12 790.88-28.02 792.68-31.91 796.06-33.97 799.44-36.04 803.98-36.04L803.98-36.04Q810.3-36.04 813.87-33.02 817.43-30 818.09-24.24L818.09-24.24 810.96-24.24Q810.47-27.29 808.8-28.71 807.13-30.13 804.2-30.13L804.2-30.13Q800.46-30.13 798.51-27.32 796.56-24.51 796.53-18.97L796.53-18.97 796.53-16.7Q796.53-11.11 798.66-8.25 800.78-5.4 804.88-5.4L804.88-5.4Q809.01-5.4 810.77-7.15L810.77-7.15 810.77-13.28 804.1-13.28 804.1-18.68 818.09-18.68ZM831.01-37.5L831.01 0 823.93 0 823.93-37.5 831.01-37.5ZM835.72-13.13L835.72-13.45Q835.72-17.38 837.23-20.46 838.75-23.54 841.59-25.22 844.43-26.9 848.19-26.9L848.19-26.9Q853.54-26.9 856.92-23.63 860.3-20.36 860.69-14.75L860.69-14.75 860.74-12.94Q860.74-6.86 857.35-3.19 853.96 0.49 848.24 0.49 842.53 0.49 839.12-3.17 835.72-6.84 835.72-13.13L835.72-13.13ZM842.77-12.94L842.77-12.94Q842.77-9.18 844.19-7.19 845.61-5.2 848.24-5.2L848.24-5.2Q850.81-5.2 852.25-7.17 853.69-9.13 853.69-13.45L853.69-13.45Q853.69-17.14 852.25-19.17 850.81-21.19 848.19-21.19L848.19-21.19Q845.61-21.19 844.19-19.18 842.77-17.16 842.77-12.94ZM888.89-13.35L888.89-12.96Q888.89-6.62 886.18-3.06 883.47 0.49 878.61 0.49L878.61 0.49Q874.32 0.49 871.75-2.81L871.75-2.81 871.44 0 865.09 0 865.09-37.5 872.14-37.5 872.14-24.05Q874.58-26.9 878.56-26.9L878.56-26.9Q883.4-26.9 886.15-23.35 888.89-19.8 888.89-13.35L888.89-13.35ZM881.84-13.48L881.84-13.48Q881.84-17.48 880.57-19.32 879.3-21.17 876.78-21.17L876.78-21.17Q873.41-21.17 872.14-18.41L872.14-18.41 872.14-7.98Q873.44-5.2 876.83-5.2L876.83-5.2Q880.25-5.2 881.32-8.57L881.32-8.57Q881.84-10.18 881.84-13.48ZM905.4 0.49L905.4 0.49Q899.58 0.49 895.94-3.08 892.29-6.64 892.29-12.57L892.29-12.57 892.29-13.26Q892.29-17.24 893.82-20.37 895.36-23.51 898.18-25.21 901-26.9 904.61-26.9L904.61-26.9Q910.03-26.9 913.15-23.49 916.26-20.07 916.26-13.79L916.26-13.79 916.26-10.91 899.44-10.91Q899.78-8.33 901.5-6.76 903.22-5.2 905.86-5.2L905.86-5.2Q909.94-5.2 912.23-8.15L912.23-8.15 915.7-4.27Q914.11-2.03 911.4-0.77 908.69 0.49 905.4 0.49ZM904.59-21.19L904.59-21.19Q902.49-21.19 901.18-19.78 899.88-18.36 899.51-15.72L899.51-15.72 909.33-15.72 909.33-16.28Q909.28-18.63 908.06-19.91 906.84-21.19 904.59-21.19Z" opacity="1" transform="matrix(1,0,0,1,0,0)" fill="#ffffff" class="undefined-text-1" data-fill-palette-color="secondary" id="text-1"></path></svg></g></svg></g></svg></g></svg></g><g><svg viewBox="0 0 87.961164816852 125.09942740074156" height="125.09942740074156" width="87.961164816852"><g><svg version="1.0" xmlns="http://www.w3.org/2000/svg" xmlns:xlink="http://www.w3.org/1999/xlink" x="0" y="0" viewBox="0 0 70.31300354003906 100" enable-background="new 0 0 70.312 100" xml:space="preserve" width="87.961164816852" height="125.09942740074156" class="icon-icon-0" data-fill-palette-color="accent" id="icon-0"><path d="M15.42 24.624c6.365 0 11.53-5.511 11.53-12.308C26.95 5.513 21.785 0 15.42 0 9.054 0 3.892 5.513 3.892 12.316 3.892 19.113 9.054 24.624 15.42 24.624z" fill="#ffffff" data-fill-palette-color="accent"></path><path d="M51.971 73.88c1.019-2.722-1.022-20.681-1.022-20.681L38.213 31.435l5.096-2.177 9.681 14.148 7.132-5.442L51.459 20.55l-22.927-1.085c-1.528 2.721-11.209 8.16-13.247 8.707-2.038 0.545-1.021 17.413-1.021 17.413L0 46.131l1.019 11.423 23.946-2.178 2.55-8.706c0 0 3.566 8.165 4.583 9.796 1.019 1.632-1.017 3.809-1.017 3.809l-13.758 8.706L18.341 100h10.191l2.038-23.942 11.72-8.162-1.022 16.868h27.517l1.528-11.428C67.255 68.436 50.948 76.602 51.971 73.88z" fill="#ffffff" data-fill-palette-color="accent"></path></svg></g></svg></g></svg></g><defs></defs></svg><rect width="395.52" height="99.5947172300469" fill="none" stroke="none" visibility="hidden"></rect></g></svg></g></svg>